<svg width="16" height="16" viewBox="0 0 16 16" fill="none" xmlns="http://www.w3.org/2000/svg">
<path fill-rule="evenodd" clip-rule="evenodd" d="M0.799805 4.5999C0.799805 3.38488 1.78478 2.3999 2.9998 2.3999H12.9998C14.2148 2.3999 15.1998 3.38488 15.1998 4.5999V11.3999C15.1998 12.6149 14.2148 13.5999 12.9998 13.5999H2.9998C1.78478 13.5999 0.799805 12.6149 0.799805 11.3999V4.5999ZM2.9998 3.5999C2.44752 3.5999 1.9998 4.04762 1.9998 4.5999V11.3999C1.9998 11.9522 2.44752 12.3999 2.9998 12.3999H12.9998C13.5521 12.3999 13.9998 11.9522 13.9998 11.3999V4.5999C13.9998 4.04762 13.5521 3.5999 12.9998 3.5999H2.9998ZM3.34425 5.01163C3.5599 4.76004 3.93868 4.7309 4.19028 4.94655L7.9998 8.21186L11.8093 4.94655C12.0609 4.7309 12.4397 4.76004 12.6554 5.01163C12.871 5.26323 12.8419 5.64201 12.5903 5.85766L8.39028 9.45766C8.16559 9.65026 7.83402 9.65026 7.60933 9.45766L3.40933 5.85766C3.15773 5.64201 3.1286 5.26323 3.34425 5.01163Z" fill="#1D51A4"/>
</svg>
