<svg width="13" height="12" viewBox="0 0 13 12" fill="none" xmlns="http://www.w3.org/2000/svg">
<path d="M10.75 4V10.5C10.75 10.64 10.7017 10.7583 10.605 10.855C10.5083 10.9517 10.39 11 10.25 11H2.25C2.11 11 1.99167 10.9517 1.895 10.855C1.79833 10.7583 1.75 10.64 1.75 10.5V1.5C1.75 1.36 1.79833 1.24167 1.895 1.145C1.99167 1.04833 2.11 1 2.25 1H7.75L10.75 4ZM9.75 4.5H7.25V2H2.75V10H9.75V4.5ZM4.25 3.5H5.75V4.5H4.25V3.5ZM4.25 5.5H8.25V6.5H4.25V5.5ZM4.25 7.5H8.25V8.5H4.25V7.5Z" fill="#4B5563"/>
</svg>
