<svg width="16" height="16" viewBox="0 0 16 16" fill="none" xmlns="http://www.w3.org/2000/svg">
<path fill-rule="evenodd" clip-rule="evenodd" d="M5.14738 1.61431C5.30333 1.64096 5.50733 1.71996 5.65322 1.91928L6.94853 3.689C7.2144 4.05224 7.27073 4.52815 7.09702 4.94343L6.52033 6.32207C6.50799 6.35158 6.51548 6.37315 6.52175 6.38205C6.88734 6.90132 7.34419 7.45511 7.91927 8.03265C7.92826 8.04063 7.93707 8.04893 7.94569 8.05754C8.5313 8.64321 9.09268 9.10719 9.61865 9.47753C9.62756 9.4838 9.64912 9.4913 9.67864 9.47895L11.0571 8.90231C11.4724 8.72857 11.9483 8.78491 12.3116 9.05082L14.0811 10.3461C14.2804 10.492 14.3594 10.696 14.386 10.852C14.4115 11.0009 14.3972 11.1423 14.3778 11.2502C14.3388 11.4677 14.2504 11.6971 14.1633 11.8913C13.9853 12.2881 13.7433 12.6882 13.6259 12.8623L13.5407 12.9887L13.5352 12.9969C13.2975 13.3495 12.9413 13.8781 12.3562 14.1401C11.3445 14.5932 10.0387 14.4168 8.7595 13.8919C7.47479 13.3647 6.10778 12.4441 4.86698 11.2158C4.8567 11.2068 4.84665 11.1974 4.83685 11.1876C3.58179 9.93255 2.64217 8.54449 2.10739 7.24114C1.58247 5.96183 1.40611 4.65591 1.8592 3.64419C2.12122 3.05911 2.64979 2.70284 3.00245 2.46514C3.00515 2.46332 3.00785 2.46151 3.01053 2.4597L3.13692 2.3745C3.31112 2.25708 3.71116 2.01502 4.10802 1.83701C4.30224 1.74989 4.53156 1.66157 4.74909 1.62249C4.85704 1.6031 4.99844 1.58885 5.14738 1.61431ZM5.63615 10.2896C5.64492 10.2974 5.65352 10.3055 5.66193 10.3139C6.82259 11.4747 8.0808 12.3163 9.21506 12.7817C10.3734 13.257 11.2964 13.2999 11.8657 13.0449C12.0963 12.9417 12.281 12.7106 12.5456 12.318L12.6308 12.1916C12.7189 12.0609 12.9245 11.7211 13.0684 11.4002C13.1102 11.307 13.1416 11.2268 13.1633 11.1614L11.6028 10.0191C11.5788 10.0016 11.5475 9.9979 11.5202 10.0093L10.1418 10.586C9.7512 10.7494 9.2912 10.7146 8.92779 10.4587C8.35134 10.0528 7.74528 9.55165 7.12048 8.92934C7.1112 8.92114 7.10212 8.91261 7.09325 8.90373C6.46012 8.2706 5.95149 7.65656 5.54054 7.07286C5.2847 6.70947 5.24992 6.24952 5.41328 5.85899L5.98997 4.48035C6.00141 4.453 5.9977 4.42167 5.98019 4.39775L4.83784 2.83701C4.77249 2.85875 4.69231 2.89011 4.59913 2.93191C4.27816 3.07588 3.93843 3.28139 3.80766 3.36954L3.68127 3.45474C3.28876 3.71932 3.05764 3.9041 2.95439 4.13466C2.69938 4.70408 2.74227 5.62721 3.21757 6.78562C3.67642 7.9039 4.50081 9.14264 5.63615 10.2896Z" fill="#16A34A"/>
</svg>
