<svg width="13" height="12" viewBox="0 0 13 12" fill="none" xmlns="http://www.w3.org/2000/svg">
<path d="M6.75 2.28C7.49 2.36 8.17 2.61 8.79 3.03C9.39 3.44333 9.86333 3.97333 10.21 4.62C10.57 5.28 10.75 5.99 10.75 6.75V11.25H1.75V6.75C1.75 5.99 1.93 5.28 2.29 4.62C2.63667 3.97333 3.11 3.44333 3.71 3.03C4.33 2.61 5.01 2.36 5.75 2.28V0.75H6.75V2.28ZM9.75 10.25V6.75C9.75 6.11667 9.59 5.52667 9.27 4.98C8.96333 4.45333 8.54667 4.03667 8.02 3.73C7.47333 3.41 6.88333 3.25 6.25 3.25C5.61667 3.25 5.02667 3.41 4.48 3.73C3.95333 4.03667 3.53667 4.45333 3.23 4.98C2.91 5.52667 2.75 6.11667 2.75 6.75V10.25H9.75ZM6.25 9.25C5.79667 9.25 5.37833 9.13833 4.995 8.915C4.61167 8.69167 4.30833 8.38833 4.085 8.005C3.86167 7.62167 3.75 7.20333 3.75 6.75C3.75 6.29667 3.86167 5.87833 4.085 5.495C4.30833 5.11167 4.61167 4.80833 4.995 4.585C5.37833 4.36167 5.79667 4.25 6.25 4.25C6.70333 4.25 7.12167 4.36167 7.505 4.585C7.88833 4.80833 8.19167 5.11167 8.415 5.495C8.63833 5.87833 8.75 6.29667 8.75 6.75C8.75 7.20333 8.63833 7.62167 8.415 8.005C8.19167 8.38833 7.88833 8.69167 7.505 8.915C7.12167 9.13833 6.70333 9.25 6.25 9.25ZM6.25 8.25C6.52333 8.25 6.775 8.18333 7.005 8.05C7.235 7.91667 7.41667 7.735 7.55 7.505C7.68333 7.275 7.75 7.02333 7.75 6.75C7.75 6.47667 7.68333 6.225 7.55 5.995C7.41667 5.765 7.235 5.58333 7.005 5.45C6.775 5.31667 6.52333 5.25 6.25 5.25C5.97667 5.25 5.725 5.31667 5.495 5.45C5.265 5.58333 5.08333 5.765 4.95 5.995C4.81667 6.225 4.75 6.47667 4.75 6.75C4.75 7.02333 4.81667 7.275 4.95 7.505C5.08333 7.735 5.265 7.91667 5.495 8.05C5.725 8.18333 5.97667 8.25 6.25 8.25ZM6.25 7.25C6.11 7.25 5.99167 7.20167 5.895 7.105C5.79833 7.00833 5.75 6.89 5.75 6.75C5.75 6.61 5.79833 6.49167 5.895 6.395C5.99167 6.29833 6.11 6.25 6.25 6.25C6.39 6.25 6.50833 6.29833 6.605 6.395C6.70167 6.49167 6.75 6.61 6.75 6.75C6.75 6.89 6.70167 7.00833 6.605 7.105C6.50833 7.20167 6.39 7.25 6.25 7.25Z" fill="#9333EA"/>
</svg>
