<svg width="21" height="20" viewBox="0 0 21 20" fill="none" xmlns="http://www.w3.org/2000/svg">
<path d="M10.42 18.3335C9.28667 18.3335 8.20334 18.1168 7.17 17.6835C6.18111 17.2613 5.30056 16.6641 4.52834 15.8918C3.75611 15.1196 3.15889 14.2391 2.73667 13.2502C2.30334 12.2168 2.08667 11.1335 2.08667 10.0002C2.08667 8.86683 2.30334 7.7835 2.73667 6.75016C3.15889 5.76127 3.75611 4.88072 4.52834 4.1085C5.30056 3.33627 6.18111 2.73905 7.17 2.31683C8.20334 1.8835 9.28667 1.66683 10.42 1.66683C11.5533 1.66683 12.6367 1.8835 13.67 2.31683C14.6589 2.73905 15.5394 3.33627 16.3117 4.1085C17.0839 4.88072 17.6811 5.76127 18.1033 6.75016C18.5367 7.7835 18.7533 8.86683 18.7533 10.0002C18.7533 11.1335 18.5367 12.2168 18.1033 13.2502C17.6811 14.2391 17.0839 15.1196 16.3117 15.8918C15.5394 16.6641 14.6589 17.2613 13.67 17.6835C12.6367 18.1168 11.5533 18.3335 10.42 18.3335ZM10.42 16.6668C11.6311 16.6668 12.7533 16.3613 13.7867 15.7502C14.7867 15.1613 15.5811 14.3668 16.17 13.3668C16.7811 12.3335 17.0867 11.2113 17.0867 10.0002C17.0867 8.78905 16.7811 7.66683 16.17 6.6335C15.5811 5.6335 14.7867 4.83905 13.7867 4.25016C12.7533 3.63905 11.6311 3.3335 10.42 3.3335C9.20889 3.3335 8.08667 3.63905 7.05334 4.25016C6.05334 4.83905 5.25889 5.6335 4.67 6.6335C4.05889 7.66683 3.75334 8.78905 3.75334 10.0002C3.75334 11.2113 4.05889 12.3335 4.67 13.3668C5.25889 14.3668 6.05334 15.1613 7.05334 15.7502C8.08667 16.3613 9.20889 16.6668 10.42 16.6668ZM7.50334 11.6668H12.0867C12.1978 11.6668 12.295 11.6252 12.3783 11.5418C12.4617 11.4585 12.5033 11.3613 12.5033 11.2502C12.5033 11.1391 12.4617 11.0418 12.3783 10.9585C12.295 10.8752 12.1978 10.8335 12.0867 10.8335H8.75334C8.37556 10.8335 8.02834 10.7391 7.71167 10.5502C7.395 10.3613 7.14223 10.1085 6.95334 9.79183C6.76445 9.47516 6.67 9.12794 6.67 8.75016C6.67 8.37238 6.76445 8.02516 6.95334 7.7085C7.14223 7.39183 7.395 7.13905 7.71167 6.95016C8.02834 6.76127 8.37556 6.66683 8.75334 6.66683H9.58667V5.00016H11.2533V6.66683H13.3367V8.3335H8.75334C8.64223 8.3335 8.545 8.37516 8.46167 8.4585C8.37834 8.54183 8.33667 8.63905 8.33667 8.75016C8.33667 8.86127 8.37834 8.9585 8.46167 9.04183C8.545 9.12516 8.64223 9.16683 8.75334 9.16683H12.0867C12.4644 9.16683 12.8117 9.26127 13.1283 9.45016C13.445 9.63905 13.6978 9.89183 13.8867 10.2085C14.0756 10.5252 14.17 10.8724 14.17 11.2502C14.17 11.6279 14.0756 11.9752 13.8867 12.2918C13.6978 12.6085 13.445 12.8613 13.1283 13.0502C12.8117 13.2391 12.4644 13.3335 12.0867 13.3335H11.2533V15.0002H9.58667V13.3335H7.50334V11.6668Z" fill="#EAB308"/>
</svg>
