<svg width="16" height="18" viewBox="0 0 16 18" fill="none" xmlns="http://www.w3.org/2000/svg">
<path d="M9.05068 16.1387L13.6009 13.5117C14.0866 13.2312 14.329 13.091 14.5056 12.8948C14.6619 12.7212 14.7801 12.5168 14.8523 12.2947C14.9337 12.0442 14.9337 11.7643 14.9337 11.2061V5.94426C14.9337 5.386 14.9337 5.10614 14.8523 4.85568C14.7801 4.63354 14.6619 4.42893 14.5056 4.25536C14.3298 4.06003 14.0879 3.9204 13.6064 3.64238L9.04987 1.01168C8.56413 0.73124 8.32174 0.591304 8.06354 0.536421C7.83508 0.48786 7.59888 0.48786 7.37042 0.536421C7.11221 0.591304 6.86902 0.73124 6.38328 1.01168L1.83222 3.63924C1.34705 3.91935 1.10465 4.0593 0.928121 4.25536C0.771835 4.42893 0.653809 4.63354 0.581634 4.85568C0.500061 5.10673 0.500061 5.38732 0.500061 5.9482V11.2023C0.500061 11.7632 0.500061 12.0436 0.581634 12.2947C0.653809 12.5168 0.771835 12.7212 0.928121 12.8948C1.10475 13.091 1.34733 13.2312 1.83307 13.5117L6.38328 16.1387C6.86901 16.4192 7.11222 16.5592 7.37042 16.6141C7.59888 16.6626 7.83508 16.6626 8.06354 16.6141C8.32174 16.5592 8.56495 16.4192 9.05068 16.1387Z" stroke="white" stroke-linecap="round" stroke-linejoin="round"/>
<path d="M5.21686 8.57516C5.21686 9.95587 6.33615 11.0752 7.71686 11.0752C9.09757 11.0752 10.2169 9.95587 10.2169 8.57516C10.2169 7.19445 9.09757 6.07516 7.71686 6.07516C6.33615 6.07516 5.21686 7.19445 5.21686 8.57516Z" stroke="white" stroke-linecap="round" stroke-linejoin="round"/>
</svg>
