<svg width="21" height="21" viewBox="0 0 21 21" fill="none" xmlns="http://www.w3.org/2000/svg">
<path d="M11.375 14H7" stroke="white" stroke-width="2" stroke-linecap="round" stroke-linejoin="round"/>
<path d="M12.25 7H7" stroke="white" stroke-width="2" stroke-linecap="round" stroke-linejoin="round"/>
<path d="M14 10.5H7" stroke="white" stroke-width="2" stroke-linecap="round" stroke-linejoin="round"/>
<path d="M3.5 2.62508C3.5 2.39301 3.59219 2.17046 3.75628 2.00636C3.92038 1.84227 4.14294 1.75008 4.375 1.75008C4.59167 1.74889 4.80417 1.8096 4.9875 1.92508L5.80387 2.45008C5.98678 2.56696 6.19931 2.62906 6.41638 2.62906C6.63344 2.62906 6.84597 2.56696 7.02887 2.45008L7.84613 1.92508C8.02903 1.8082 8.24156 1.74609 8.45862 1.74609C8.67569 1.74609 8.88822 1.8082 9.07112 1.92508L9.8875 2.45008C10.0704 2.56696 10.2829 2.62906 10.5 2.62906C10.7171 2.62906 10.9296 2.56696 11.1125 2.45008L11.9289 1.92508C12.1118 1.8082 12.3243 1.74609 12.5414 1.74609C12.7584 1.74609 12.971 1.8082 13.1539 1.92508L13.9711 2.45008C14.154 2.56696 14.3666 2.62906 14.5836 2.62906C14.8007 2.62906 15.0132 2.56696 15.1961 2.45008L16.0125 1.92508C16.1958 1.8096 16.4083 1.74889 16.625 1.75008C16.8571 1.75008 17.0796 1.84227 17.2437 2.00636C17.4078 2.17046 17.5 2.39301 17.5 2.62508V18.3751C17.5 18.6071 17.4078 18.8297 17.2437 18.9938C17.0796 19.1579 16.8571 19.2501 16.625 19.2501C16.4083 19.2513 16.1958 19.1906 16.0125 19.0751L15.1961 18.5501C15.0132 18.4332 14.8007 18.3711 14.5836 18.3711C14.3666 18.3711 14.154 18.4332 13.9711 18.5501L13.1539 19.0751C12.971 19.192 12.7584 19.2541 12.5414 19.2541C12.3243 19.2541 12.1118 19.192 11.9289 19.0751L11.1125 18.5501C10.9296 18.4332 10.7171 18.3711 10.5 18.3711C10.2829 18.3711 10.0704 18.4332 9.8875 18.5501L9.07112 19.0751C8.88822 19.192 8.67569 19.2541 8.45862 19.2541C8.24156 19.2541 8.02903 19.192 7.84613 19.0751L7.02887 18.5501C6.84597 18.4332 6.63344 18.3711 6.41638 18.3711C6.19931 18.3711 5.98678 18.4332 5.80387 18.5501L4.9875 19.0751C4.80417 19.1906 4.59167 19.2513 4.375 19.2501C4.14294 19.2501 3.92038 19.1579 3.75628 18.9938C3.59219 18.8297 3.5 18.6071 3.5 18.3751V2.62508Z" stroke="white" stroke-width="2" stroke-linecap="round" stroke-linejoin="round"/>
</svg>
