<svg width="20" height="20" viewBox="0 0 20 20" fill="none" xmlns="http://www.w3.org/2000/svg">
<path d="M11.666 15.0007V5.00065C11.666 4.55862 11.4904 4.1347 11.1779 3.82214C10.8653 3.50958 10.4414 3.33398 9.99935 3.33398H3.33268C2.89065 3.33398 2.46673 3.50958 2.15417 3.82214C1.84161 4.1347 1.66602 4.55862 1.66602 5.00065V14.1673C1.66602 14.3883 1.75381 14.6003 1.91009 14.7566C2.06637 14.9129 2.27834 15.0007 2.49935 15.0007H4.16602" stroke="white" stroke-width="1.66667" stroke-linecap="round" stroke-linejoin="round"/>
<path d="M12.5 15H7.5" stroke="white" stroke-width="1.66667" stroke-linecap="round" stroke-linejoin="round"/>
<path d="M15.8327 14.9993H17.4993C17.7204 14.9993 17.9323 14.9116 18.0886 14.7553C18.2449 14.599 18.3327 14.387 18.3327 14.166V11.1243C18.3323 10.9352 18.2677 10.7519 18.1493 10.6043L15.2493 6.97935C15.1714 6.88175 15.0725 6.80292 14.96 6.74868C14.8475 6.69445 14.7242 6.66619 14.5993 6.66602H11.666" stroke="white" stroke-width="1.66667" stroke-linecap="round" stroke-linejoin="round"/>
<path d="M14.1667 16.6673C15.0871 16.6673 15.8333 15.9211 15.8333 15.0007C15.8333 14.0802 15.0871 13.334 14.1667 13.334C13.2462 13.334 12.5 14.0802 12.5 15.0007C12.5 15.9211 13.2462 16.6673 14.1667 16.6673Z" stroke="white" stroke-width="1.66667" stroke-linecap="round" stroke-linejoin="round"/>
<path d="M5.83268 16.6673C6.75316 16.6673 7.49935 15.9211 7.49935 15.0007C7.49935 14.0802 6.75316 13.334 5.83268 13.334C4.91221 13.334 4.16602 14.0802 4.16602 15.0007C4.16602 15.9211 4.91221 16.6673 5.83268 16.6673Z" stroke="white" stroke-width="1.66667" stroke-linecap="round" stroke-linejoin="round"/>
</svg>
