<svg width="18" height="20" viewBox="0 0 18 20" fill="none" xmlns="http://www.w3.org/2000/svg">
<path d="M15.375 0C14.34 0 13.5 0.84 13.5 1.875V17.625C13.5 18.66 14.34 19.5 15.375 19.5H16.125C17.16 19.5 18 18.66 18 17.625V1.875C18 0.839 17.16 0 16.125 0H15.375ZM6.75 6.375C6.75 5.339 7.59 4.5 8.625 4.5H9.375C10.411 4.5 11.25 5.34 11.25 6.375V17.625C11.25 18.66 10.41 19.5 9.375 19.5H8.625C8.12772 19.5 7.6508 19.3025 7.29917 18.9508C6.94754 18.5992 6.75 18.1223 6.75 17.625V6.375ZM0 10.875C0 9.839 0.84 9 1.875 9H2.625C3.661 9 4.5 9.84 4.5 10.875V17.625C4.5 18.66 3.66 19.5 2.625 19.5H1.875C1.37772 19.5 0.900805 19.3025 0.549175 18.9508C0.197544 18.5992 0 18.1223 0 17.625V10.875Z" fill="white"/>
</svg>
