<svg width="126" height="93" viewBox="0 0 126 93" fill="none" xmlns="http://www.w3.org/2000/svg">
<path d="M98.6362 76.5464C82.5387 94.0052 42.179 103.629 42.179 103.629L42.7277 110.384C42.7277 110.384 88.9937 100 107.222 82.7401C123.675 67.1609 142.674 30.0291 142.674 30.0291L125.794 33.862C125.794 33.862 110.387 63.8021 98.6362 76.5464Z" fill="#EFEEFF"/>
<path d="M93.9897 53.8078C73.6442 80.3734 20.0651 98.2174 20.0651 98.2174L14.8064 108.195C14.8064 108.195 71.7625 92.6025 97.447 68.2822C120.63 46.3301 137.221 0.0278636 137.221 0.0278636L117.558 4.40018C117.558 4.40018 108.948 34.2761 93.9897 53.8078Z" fill="#EFEEFF"/>
</svg>
